<svg xmlns="http://www.w3.org/2000/svg" viewBox="0 0 22 22" width="22" height="22"><circle cx="11" cy="11" r="11" fill="#fdd4cd"/><circle cx="11" cy="11" r="8" fill="#dd2b0e"/><path fill="white" d="M11 9.38L8.798 7.178a.455.455 0 0 0-.65.006l-.964.965a.462.462 0 0 0-.006.65L9.38 11l-2.202 2.202a.455.455 0 0 0 .006.65l.965.964a.462.462 0 0 0 .65.006L11 12.62l2.202 2.202a.455.455 0 0 0 .65-.006l.964-.965a.462.462 0 0 0 .006-.65L12.62 11l2.202-2.202a.455.455 0 0 0-.006-.65l-.965-.964a.462.462 0 0 0-.65-.006L11 9.38z"/></svg>